<?xml version="1.0" encoding="utf-8"?>
<!-- Generator: Adobe Illustrator 18.1.1, SVG Export Plug-In . SVG Version: 6.00 Build 0)  -->
<svg version="1.1" id="Layer_1" xmlns="http://www.w3.org/2000/svg" xmlns:xlink="http://www.w3.org/1999/xlink" x="0px" y="0px"
	 viewBox="0 0 792 522" enable-background="new 0 0 792 522" xml:space="preserve">
<g>
	<g>
		<path d="M279,59.6c0.5,8.3,1.9,16.7,1.4,24.9c-1.3,18.6,10.3,22.9,25.2,27.1c27.7,7.9,52.9-7.1,79.6-6.3c4.6,0.1,3.5-2.5,3.6-4.2
			c0.4-4.4-2.5-8-6.2-8.4c-8.7-0.9-17.6-3.1-26.2,2.2c-5.8,3.6-12.5,5.6-19,8.4c-4.1-21.5-4.2-20.6,16.6-19.5
			c11.2,0.6,23,3.2,34-2.9c2.6-1.4,6.2-5.6,9.9-1c3.7,4.5,4.1,10,0.9,14.1c-12.6,16-3.5,32.4,3.3,44.7c6.2,11.3,19.1,17.5,37.5,12.8
			c18.8-4.8,40.4-4.5,60.8,1.5c7.2,2.1,15.7,4.8,23.6-0.6c10.7-7.3,11.9,9.7,22.7,8.1c-10.5-24.1-39.9-9.4-53.7-27.9
			c23.7-5.6,46.2-10.1,69.5-9.8c5,0.1,11.6-1.8,13.7,4.1c1.7,4.7-1.7,9.6-5.4,13.3c-0.5,0.5-0.9,0.9-1.4,1.4
			c-21.7,23.6-21.9,24.3,8.3,34.8c23.6,8.2,45.6,18.3,63,37.1c9.5,10.3,21,17.5,36.7,13.3c-13.4,14-24.6,5.6-34.2-3.5
			c-12.9-12.2-25.5-24.2-43.6-29.6c29.2,25.1,47.8,57.1,61.9,91.6c5.8,14.1,16.7,25.8,18.4,41.8c0.8,7.6,8.2,4.2,12.7,4.6
			c51.1,4.9,77.7,43.1,79.5,83.4c1.6,36.8-25,66.5-65.1,74.8c-35,7.3-75.8-14.2-87.6-46.3c-11.6-31.4,1.6-77.5,30.4-94.3
			c13.9-8.1,17.2-12.1,11.3-28.5c-10.7-29.8-21.7-58.9-39.3-85.4c-17.7-26.5-40.9-48.5-69.8-59.2c-36.8-13.6-75.4-25.1-116.2-18.8
			c-6,0.9-12.4,1.5-12.6,8.9c-0.2,8.4,1.4,13.4,13.3,15.2c64.5,9.8,138.5,72.6,139.3,153.2c1,95.6-84.2,160.9-171.6,151.5
			c-68-7.3-109.7-48-129.9-111.2c-3.9-12.3-8.4-14.4-17.8-11.6c-13.3,3.8-27,7.4-39.6,12.1c-11.1,4.1-9.9,20.8-9.1,31.7
			c1.4,20.2-2.9,40.3-0.3,60.3c1.8,13.6-7.4,19.6-15.6,16.2c-14.8-6.1-28.2-1.3-42.2-1.2c-3.9,0-9.5,2.6-11.5-3.6
			c-1.7-5.2,2-8.4,5.2-11.5c2.8-2.7,5.5-6.5,8.8-7.3c15-3.8,18.2-14,16.6-27.6c-0.5-4.3-0.7-8.8,3-12.7c18.5-19.3,17.8-40.9-2-58.3
			c-5.3-4.6-6.1-8.9-2.6-15.1c5.5-10,9.6-20.8,15.6-30.5c8.7-14,5.3-25-5.5-35.8c-11.3-11.2-23.9-21.3-29.7-37.1
			c-6.6-17.8-21.7-13.5-34.5-11.2c-24.1,4.5-29.5,0.8-37.7-23.2c-5.6-16.6-13.8-32.5-22-48.1c-3.8-7.2-8.6-16.9-19.7-5.9
			c-7.3,7.3-13.4,0.8-17.4-5c-6.6-9.6,0.5-18.7,4.2-26.7c3-6.4,12.6-6.7,16.6-1.3c12.1,16.6,32.6,12.7,44.8,10.7
			c21-3.5,16.7,7,17.5,17.7c-1.9-0.1-3.9-0.5-5.8-0.4c-6.9,0.4-13.7-12.7-19.7-2.4c-4.7,8-1.9,17.1,3.4,26.6
			c6.3,11.2,16,19.6,21.7,30.8c5.7,11,13.5,1.3,20.1,2.4c3,0.5,9.7-4.1,9.8-6.7c0.3-6.1-5.2-10.7-10.7-11.8
			c-23.6-4.8-20.7-22.3-19.4-39.1c3.1,0.1,6.5,0.7,7.7-3.5c10.1-34.2,15.8-37.7,50.9-30.5c4.2,0.9,7.7,3.9,12.7,3.2
			c5.6-0.8,5.4-0.2,3.5,6c-1.7,5.5,3.1,9.2,4.9,13.7c5.4,13.4,12.2,25.8-3.1,38.8c-7.6,6.5-0.9,15,6.6,19.7
			c17.1,10.7,34.5,21,51.7,31.6c19.1,11.9,32,28.1,36.5,50.7c0.6,3.2,3.4,5.9,6.2,10.4c8.8-20.6,16.1-39.8,30.3-55.6
			c16.6-18.4,37.1-29.2,59.4-38.3c8.2-3.4,26.7-3.2,12.8-22.8c-4.9-6.9,2.8-19.1,5.8-28.7c1.2-4,6.8-7.9,3.2-12
			c-3-3.4-8.3-2.2-12.7-0.8c-21.5,6.7-43,8.8-65.4,3.3c-7.7-1.9-12.6-5.1-16.8-10.8c-6.8-9.1-13.1-18.6-20.6-27.2
			c-17.6-20.2-15.3-40.5,6.9-56.7l-0.3-0.2C271.7,54.5,258.4,68,270,86c0.5,0.8,2.1,1,5.7,2.5c-5.1-11.3-2.6-20.3,3.8-28.5L279,59.6
			z M342.8,389.4c4.5-8.7,15.6-9.7,23.2-21.7c-25.3,11.4-47.2,21.2-69,31.3c-2.3,1.1-5.7,4-1.7,7.3c3.5,3,5.9,9.6,12.3,4.9
			c3.5-2.6,6-6.7,11.3-5.6c0,8-21.7,12.3-3.9,23.2c9.2,19.9,11.5,20.6,27.1,7.8c0,1.3,0.7,3.2,0.1,3.8c-10.9,10.5-2.2,17.2,5.5,21.6
			c9.8,5.6,13.1-3.6,16.4-10.4c12.2-25,24.3-50.1,37.8-77.9c-14.3,8.5-19,22.9-32.1,27.4c-0.3-5.4,1.2-12-7.7-11.6
			c0.5-6.6,11-5.3,10.8-13.2C360.8,377.1,355,390.5,342.8,389.4z M663.6,475.5c9,8.7,19.6,10.6,30.1,4.2c4.2-2.5,0.7-45.8-3-48.7
			c-0.6-0.4-2.3,0.6-3.5,1c-0.2-8.3-3.2-5.9-7.4-2.2c-12.9,11.4-26.1,22.5-40.1,34.6C648,469,654.8,474.1,663.6,475.5z M757.2,436.5
			c10.9-5.4,8.9-15.9,6.3-23.5c-3.3-9.5-10.6,0-16.1-0.1c-7-0.1-14.1,0.3-21.2,0.1c-5.4-0.2-8.6,1.5-8.5,7.4
			c-9.3,4,3.2,9.9-1.1,14.3c-3.7,0.5-5.6-6-10.3-3.5c1.8,7.9,8,12.7,7.6,20.1c-7.8-0.4-5.8-12.2-15.3-13c0,12.2,0.5,23.5-0.1,34.8
			c-0.5,9.4,4.9,11.9,11.5,9.1c4.1-1.8,16.9-0.9,9.1-12.9c-1.5-2.3-0.6-6.2-0.8-9.3c7.4,1.9,5.2,18.7,13.5,13.2
			C744.1,465,761.7,457.5,757.2,436.5z M299.8,265.5c-11.7,9.1-17.2,28.1-8.7,30.7c31.5,9.6,63.3,18.5,95,27.7c-2.8-4-6.6-5.7-10-8
			c-21-14.6-46.2-22.7-64-42c25.8,8.5,45,29.9,68.2,37.1c-17.8-19.1-36.7-40.2-56.8-60c-3-3-8.8-13.2-15.4-5.9
			C303.6,250.2,295,255.8,299.8,265.5z M361.7,215.3c-6.9-9.7-13.3-1.8-19.8,0.5c-11.9,4.3-3,12.4-3.4,18.8
			c-5.9-1.2-9-11.1-18.1-4.2c-5.4,4.1-6.2,6.8-1.5,9.7c17.7,11,29.7,27.9,44.9,41.5c5.8,5.2,5.5,0.3,6.1-3.5
			c11.2,2.8,10.4,18.2,22.4,21.3c-2.5-20.3-18.4-35.6-18.5-56.1c10.8,22.1,21.7,44.1,32.5,66.2c-6.3-34-15.7-66.8-25.9-99.3
			c-1-3.2-1.2-11.7-9.2-8.9C364.7,203.5,360.2,207.5,361.7,215.3z M431.1,250.8c1.1,13.3,0.5,26.5-4.6,44.5
			c6.3-8.8,9.3-13.1,12.3-17.4c1.8,5.8-2,10.4-3.2,15.6c-1.7,7.6,3.3,5.5,7.3,4c3.2,7.6-10.8,9.8-5.8,18.1
			c24.7-20.5,43.6-46.8,69.6-65.7c5.6-4.1,16.1-9.1,12.1-16.8c-4.3-8.6-11.8-18.5-25.3-13.9c-0.4-11.2-9.7-14.6-17.5-17.8
			c-9.3-3.9-2.9,9.9-9.6,10.1c1.7-12.9-4.5-18.5-17-19c-16.6-0.7-8.3,11.9-10.4,19c-1.5,5.1,3.2,11.6-3.6,15.5
			c-0.1-9.6-0.2-19.2-0.1-28.8c0.1-6-1.2-9.8-8.5-9.5c-6.3,0.3-7.1,3.9-7.1,8.8c0,14.7-0.6,29.5,0.5,44.2
			C420.7,245.5,420.5,256,431.1,250.8z M481.7,404.9c-9.7-8.4-19.3-16.9-29-25.3c-0.7,0.5-1.4,1.1-2.1,1.6
			c7.9,12.2,15.8,24.4,23.7,36.7c-13.2-4.9-15.4-19.3-29.4-30.2c12.5,27.3,22.9,49.9,33.3,72.5c1.3,2.8,3.5,6.9,6.4,5.5
			c9.6-4.5,19.2-9.3,27.7-15.4c9.3-6.6-7.2-10.8-2.8-17.6c7.4,6.8,14.6,10.4,21.4-0.7c9.2-14.9,19.6-29.2,27.5-44.7
			c4.7-9.2,5.6-20.2,8.5-31.5c-40.1-5-79.1-9.9-118.2-14.7c-0.2,0.8-0.5,1.6-0.7,2.3c24.3,8.1,48.6,16.2,73,24.3
			c-0.4,1.2-0.7,2.4-1.1,3.5c-18.4-5.2-36.9-10.4-56.4-15.9c2,3.9,3.5,6.9,6.7,13.2c-10.3-4.5-15.7-13.3-25.7-12.4
			c1.6,9.7,9.4,14.5,14.7,21.2C466.6,386.6,479.6,391.3,481.7,404.9z M404.7,381.3c-12.7,27.8-25.4,50.4-36,74.4
			c-6.7,15.2,3,17.6,11.2,18.4c9.6,0.9,18.8,2.2,28.3,4.4c8.8,2,18.4,1.2,27.5,0.2c8.6-1,16.2-1.6,12.1-16.1
			c-7.2-25.8-14.4-51.6-25-76.9c0,20.3,0,40.5,0,60.8c-3.1-20.3-1.7-40.8-9.3-60.5c-4.2,15.2-9.5,29.9-11.1,45.5
			C397.5,416,407,401.8,404.7,381.3z M462.9,317.3c9.9,7.5,18.1,2.1,27.3,4.8c21.6,6.3,46.3,1.9,69.7,2.1c8,0,8.6-5.8,6.8-10.4
			c-7-17.8-14.6-35.5-22.6-52.9c-2.4-5.2-6-6-11.8-1.4c-19.3,15.3-39.8,29-58.9,44.6C470.2,306.7,473.4,316.3,462.9,317.3z
			 M393.9,343.1c-16.5,0.8-29-11.6-44.6-11.7c-15.8-0.1-31.6-2.5-47.3-4.6c-5.1-0.7-11.6-7.2-13.2,2.6c-1.4,8.4,5.5,10.3,12.7,10.3
			c5.1-0.1,10.3-0.3,15.4,0.1c4.3,0.4,9.2-2.2,14.2,3.9c-23.5-4.2-36.5,10.3-49.3,26.9C319.3,361.4,356.6,352.3,393.9,343.1z
			 M456.7,332.7c7.7,4.3,13.6,6.5,20.7,7.2c25.1,2.8,49.9,7.4,75.2,8.3c4.5,0.2,10,6.5,13.1,0.1c2.3-4.7,2.1-11.6,0.5-16.8
			c-1.9-6.3-9.2-4.4-13.4-3.4C521.9,335.7,490.5,329.3,456.7,332.7z M668.9,407.3c1.4-5.4-5.5-7.1-9.4-7.8c-11-2-19.6-12.5-32-9
			c-0.9,0.3-2.2,2.1-2,2.9c2.6,11.4-9.5,24.1-2.2,32.5c7.3,8.4,18.2-1.9,27.2-5c5.3-1.8,10.1-4.9,15-7.5
			C667.4,412.6,671.1,413.3,668.9,407.3z M374.7,356.7c-0.3-1.2-0.7-2.5-1-3.7c-26.5,6.9-52.9,14-79.6,20.4
			c-7.4,1.8-12.3,3.3-8.1,12.2c3.6,7.8,7.2,9.6,16,5.1C325.8,378.6,350.4,368,374.7,356.7z M370,324.8c-25.1-7.6-50.2-15.2-75.3-23
			c-6.8-2.1-11.9-0.1-13.6,6.5c-1.7,6.7,2,11.4,9,11.8C316.7,321.7,342.7,329.7,370,324.8z M295.4,115.7c1.8,3.6,2.2,5.8,3.5,6.6
			c24.1,16,49.8,7.6,74.9,3.9c4.5-0.7,12.7-2.3,11-10.3c-1.8-8.5-10-5.4-14.3-4.2C346.2,118.6,321.9,121.9,295.4,115.7z
			 M438.5,388.4c2.3,25.4,6.9,49.7,15.1,73.4c2.6,7.6,5.2,10.9,12.8,9.2c10.6-2.4,5.4-10.4,3.5-14.8
			C460,433.4,449.1,410.9,438.5,388.4z M763,404.7c-5.3-12.5-6.6-26.1-13.2-35.7c-10.3,9.4-20,18.4-29.7,27.3
			c6.8,5.1,11.8-6.2,17.9-1c-1.7,8.4-14.9,2.1-15.8,14.3C735.6,403.1,749,406.7,763,404.7z M640.7,455.5c7.9-6.1,17.2-12.5,25.6-20
			c4.3-3.9,13.3-8.3,10.4-13.7c-4.3-7.9-10.5,0.9-15.8,2.5c-9,2.8-18.1,5.4-26.5,9.5c-3.2,1.5-12.3,1.2-7.8,9.5
			C629.5,448.6,630.5,456.2,640.7,455.5z M469.9,297.3c19.8-14,39.6-27.8,59.3-42c4-2.8,8.3-5.9,2.2-11.8c-4.6-4.4-6.8-2.8-10.6,0.7
			C503,261.2,482.5,275.4,469.9,297.3z M706,391.3c2.3,2,4.6,4,6.9,6.1c8.1-9.6,15.8-19.6,24.5-28.7c6.4-6.6,1.8-9.8-2.3-14
			c-6.4-6.5-10.2-2.2-13.1,3.4C716.5,369.1,711.4,380.3,706,391.3z M698.6,383.2c1.4,0.3,2.8,0.7,4.2,1c5-9.2,10.3-18.2,14.7-27.7
			c1.2-2.7,4.9-6.2,1.2-10.2c-4.2-4.5-9.5-2.6-14.3-2.7c-7.1-0.1-5.7,5.5-5.7,9.6C698.4,363.2,698.6,373.2,698.6,383.2z
			 M666.5,395.5c1.4-1.9,2.9-3.8,4.3-5.7c-5.7-4-12.5-7.1-16.9-12.2c-10.3-12-17.7-13.5-23,3.5C642.6,386.4,653.1,394.6,666.5,395.5
			z M645.5,361.5c8.7,3.1,9.2,19,20.9,13.9c2.8-1.2,3.5-16.5-0.1-21.1C658.4,344.3,653.7,359.4,645.5,361.5z"/>
		<path d="M279.5,60.1c15.4-20.6,39.8-12.1,59.7-17.9c14.6-4.2,30.1-4.6,40-18.8c-2.4,13.4-11.8,19.5-23.5,21.7
			c-17.3,3.3-34.8,7.3-52.2,7.2c-9.9,0-14.6,11.5-24.5,7.3C279,59.6,279.5,60.1,279.5,60.1z"/>
		<path d="M278.9,40.1c16.3-11.9,35.9-4.7,53.8-8.9c14.1-3.3,27-7.5,40.3-15.9c-11.6,18.7-53,29-94.3,24.6
			C278.7,39.9,278.9,40.1,278.9,40.1z"/>
	</g>
</g>
</svg>
