<?xml version="1.0" encoding="utf-8"?>
<!-- Generator: Adobe Illustrator 18.1.1, SVG Export Plug-In . SVG Version: 6.00 Build 0)  -->
<svg version="1.1" id="Layer_1" xmlns="http://www.w3.org/2000/svg" xmlns:xlink="http://www.w3.org/1999/xlink" x="0px" y="0px"
	 viewBox="0 0 850 100" enable-background="new 0 0 850 100" xml:space="preserve">
<g>
	<g>
		<path fill="#FFF" d="M648,100c-0.7-0.7-1.4-1.9-2-1.9c-6,0.4-6-3.5-6-7.8c-0.2-16.4-0.6-32.8-1-49.2c-0.1-5.4-0.5-10.9-1-16.3
			c-0.4-4.2,2-5.7,5.6-5.7c8.3-0.1,16.7-0.3,25,0c6.7,0.2,13,8,13.5,15.8c0.2,3.1-0.1,6.6,1.2,9.2c2.7,5.3,0.3,9.2-2.8,12.7
			c-2.5,2.9-1.4,4.6,1,6c4.8,2.9,6,7.6,6.4,12.5c0.4,5.1,0.2,10.3,0.1,15.5c-0.1,5-2.2,6.9-7.3,7.3c-3.3,0.3-6.5,1.3-9.7,1.9
			c-0.3,0-0.7,0-1,0c-3.3-2.2-7-4.3-6.9-9.1c0.1-4.1,0.1-8.3,0.7-12.4c0.9-6-1.5-9.7-6.8-9.1c0,3.1,0.1,6.2,0,9.3
			c-0.3,7.1-0.6,14.1-1,21.2C653.3,100,650.7,100,648,100z M659.5,50c0.6,0,1.2,0,1.8-0.1c4-4.6,4-5.2-2.6-11.7
			C658.9,42.1,659.2,46,659.5,50z"/>
		<path fill="#FFF" d="M373,100c-2.5-2.5-3.2-5.4-3.1-8.9c0.2-8.8,0.1-17.7,0.1-26.5c0-13.2,0.1-26.4,0-39.6c0-3.8,1.2-5.2,5.2-6.2
			c7.7-1.8,14.9-2.2,22.7-0.3c3.8,1,8.4-0.4,11.3,3.3c1.4,1.8,2.6,4.3,2.7,6.6c0.3,7,0.8,14.1-0.1,21c-1.2,8.9-4.8,16.1-13.9,17.7
			c-7.1,1.2-7.8,2.5-7.9,9.8c-0.2,6.3-0.2,12.6-1.2,18.8c-0.3,1.7-3.7,2.9-5.7,4.3C379.7,100,376.3,100,373,100z M387.8,50.3
			c0.8,0.4,1.5,0.7,2.3,1.1c1.9-2.1,5.2-4,5.4-6.3c0.3-2.8-0.3-7.1-6.5-6.9C388.7,42.2,388.2,46.3,387.8,50.3z"/>
		<path fill="#FFF" d="M804,100c-1-7.1-2.3-14.1-2.9-21.2c-1.5-15.9-2.8-31.7-3.9-47.6c-0.3-3.9,0.3-7.9,1.3-11.7c0.4-1.4,2.8-2.5,4.5-3.4
			c0.8-0.4,2-0.1,3-0.1c15-0.2,12.6,2.1,13.9,14.1c1.4,12.9,1.4,26,2.2,39c0.4,6.6,1,6.9,7.6,6c5.6-0.8,8.3,1.6,8.3,7.4
			c0,2.8,0,5.7,0,8.5c0,5.6-1.3,6.9-7,7c-4.8,0.1-9.7-0.1-14.5,0.1c-1.5,0.1-3,1.3-4.5,1.9C809.3,100,806.7,100,804,100z"/>
		<path fill="#FFF" d="M766,100c-2.8-5.1-2.2-10-0.4-15.6c1.4-4.4,0.5-9.6,0.4-14.4c-0.2-7.1-0.6-14.2-1-21.3c-0.2-3.4-0.5-6.9-1.1-10.2
			c-0.2-1.3-1.4-2.7-2.6-3.3c-3.7-2.2-7-7.6-6-11.5c0.5-1.8,2.5-4.3,4-4.4c5.5-0.6,11-0.3,16.5-0.3c0.8,0,1.8,0.3,2.5,0
			c3.4-1.3,6.6-1.2,8.2,2.3c2.8,5.8,1.7,8.9-2.7,12.9c-1.3,1.1-1.7,3.7-1.8,5.6c-0.2,5.8-0.2,11.7,0,17.6c0.1,2.4,0.7,4.9,0.9,7.3
			c0.5,6.2,1,12.5,1.5,18.9c6.3,2.7,8.1,9.1,4,14.7c-0.3,0.5-0.3,1.2-0.4,1.9C780.7,100,773.3,100,766,100z"/>
		<path fill="#FFF" d="M119.7,45c0.5-8.6,1-16.5,1.3-24.4c0.2-5.5,1.2-6.6,6.7-6.6c3.2,0,6.3,0.1,9.5,0c3.7-0.1,4.7,2.4,4.6,5.1
			c-0.4,10.4-1.3,20.7-1.8,31.1c-0.5,10.5-0.7,20.9-1,31.4c-0.1,4.2-0.1,8.4,0,12.6c0.1,2.8-1,3.9-3.8,3.8c-3.8-0.1-7.7-0.1-11.5,0
			c-3.2,0-4-1.5-3.9-4.6c0.3-7.8,0.1-15.7,0.2-23.5c0.1-3.7-2-3.9-4.8-3.9c-2.8,0-4.4,0.7-4.3,3.9c0.1,7-0.1,14.1,0.1,21.1
			c0.1,6-0.7,7-6.6,7.1c-3.2,0-6.3,0.1-9.5,0c-3.8-0.1-5.3-2.5-5.2-6.3c0.2-4.4-0.5-8.9-0.5-13.3c0-4.3,0.8-8.5,0.7-12.8
			c-0.2-14.7-0.4-29.3-1-44c-0.2-6.1,1.3-7.7,7.8-7.6c1.7,0,3.3,0,5,0c4.3,0,6.1,2.3,6.2,6.5c0.2,6.3,1.1,12.6,0.8,18.8
			c-0.3,5.5,2.4,6.1,6.6,5.7C116.7,44.9,118.1,45,119.7,45z"/>
		<path fill="#FFF" d="M727.6,85.2c-8.2-0.4-9.2,1-6.7,11.3c-2.4,0.4-4.8,1-7.2,1.1c-5,0.2-10,0.2-14.9,0.3c-2.8,0.1-4.1-1.1-3.8-3.8
			c0.6-4.7,1.2-9.4,2.1-14c1.6-8.3,3.7-16.5,5.1-24.8c1.2-6.7,1.7-13.6,2.8-20.4c0.7-4.5,1.7-9,3.1-13.3c0.4-1.3,2.9-2.5,4.5-2.6
			c6.8-0.3,13.7-0.3,20.5,0c1.3,0.1,3.3,1.7,3.6,2.9c2,8.2,3.4,16.5,5.3,24.7c2.3,9.8,4.8,19.5,7.5,29.2c1.5,5.6,3.7,11,5.1,16.6
			c0.3,1.2-0.9,3.9-1.8,4.1c-3.1,0.7-6.4,0.7-9.6,0.8c-1,0-1.9-0.5-2.9-0.5C729.2,96.3,729.2,96.3,727.6,85.2z M722.2,52.6
			c-0.3-0.1-0.7-0.3-1-0.4c-0.8,4-1.6,7.9-2.3,11.9c-0.2,1.4-0.2,4.1,0.2,4.2c1.8,0.5,4.2,0.8,5.6,0c0.9-0.5,1.2-3.3,0.9-4.8
			C724.8,59.8,723.4,56.2,722.2,52.6z"/>
		<path fill="#FFF" d="M188.2,64.6c0,3.6,0,7.2,0,11.4c3.8,0,7.4,0,11,0c1.3,0,2.7,0,3.8,0.6c2.4,1.3,5,11.3,3.9,15.2c-1.2,4.3-5.1,4.7-8.6,5.1
			c-3.6,0.3-7.3,0-11,0.1c-6.8,0.2-13.5,0.7-20.3,0.9c-4.1,0.1-7.4-4-7-8c0.8-7,1.5-14,1.9-21c0.5-8.6,0.9-17.2,1-25.8
			c0-7.8-0.4-15.5-1-23.3c-0.3-4.2,1.9-5.7,5.5-5.8c10.8-0.4,21.5-0.6,32.3-1.1c4.4-0.2,6.7,1.4,6.2,6c0,0.2,0,0.3,0,0.5
			c0.1,9.9-1.9,12-11.9,12.5c-1.3,0.1-2.9-0.5-3.9,0.1c-1.6,1-3.3,2.4-4,4c-0.7,1.5,0,3.6-0.2,5.4c-0.4,3.6,1.3,4.8,4.7,4.5
			c1.7-0.2,3.3,0,5,0c3.7,0,6.6,0.6,5.4,5.6c-0.2,1,0.7,2.1,0.8,3.2c0.4,3.2-0.1,5.8-3.9,6.7C194.7,62.3,191.5,63.5,188.2,64.6z"/>
		<path fill="#FFF" d="M482,62.7c0-8.5,0.1-17,0-25.5c-0.1-4.8-0.8-9.5-0.9-14.3c-0.1-3.8,1.3-6.3,5.8-6c2.9,0.2,5.9-0.6,8.8-0.9
			c8.7-0.9,16.5,1.4,22.3,7.8c2.7,3,4.3,7.7,5,11.8c1,6,2.3,12.7,0.6,18.1c-1.7,5.2-2.4,8.6-0.3,14.2c2.4,6.3,0.8,14.2,0.9,21.4
			c0,0.9,0.5,2,0.3,2.8c-0.6,1.8-1.3,4.8-2.4,5c-4,0.6-8.1,0.5-12.2,0.2c-0.8-0.1-1.8-2.4-1.9-3.8c-0.2-5.5,0-11-0.1-16.5
			c0-1.9-0.2-4.1-1.1-5.7c-0.7-1.2-2.7-2.2-4.1-2.2c-0.9,0-2.5,2-2.6,3.2c-0.3,5.8-0.3,11.7-0.1,17.5c0.1,3.3-0.4,5.5-4.5,5.2
			c-2-0.1-4.2,0.7-6.2,1.2c-4.5,1.1-7.2-0.9-7.2-5.6C482,81.4,482,72,482,62.7z M500.9,50.7c2.2-1,4.9-1.5,5.1-2.5
			c0.6-2.5,0.5-5.4-0.2-7.9c-0.3-1.2-2.6-1.9-5-3.4C500.9,42,500.9,45.5,500.9,50.7z"/>
		<path fill="#FFF" d="M355.4,86.6C355,97,355,97,344.4,97c-7.2,0-8.4-1.2-8.4-8.3c0-3.1,0.3-6.3-4-6.6c-3.6-0.2-6,2.6-6,6.8
			c-0.1,2.9,1,7.1-0.6,8.5c-1.6,1.5-5.7,0.4-8.6,0.4c-3.2,0-6.4,0-9.6,0c-2.7,0-3.4-1-2.7-3.7c1.1-4.4,1.6-9,2.6-13.4
			c2.9-13.8,5.9-27.6,8.9-41.4c1.4-6.4,2.7-12.7,4.1-19.1c1.3-5.9,6.8-4.6,10.6-6c2.2-0.8,5.2-0.8,7.4,0c2.3,0.8,5.2,2.7,5.8,4.7
			c1.9,6.2,3,12.6,4.2,19c0.8,4.5,1.3,9,2,13.6c1.4,8.6,2.8,17.3,4.1,25.9C354.6,80.5,355,83.5,355.4,86.6z M332.2,50.3
			c-0.6,0-1.2,0.1-1.8,0.1c-1.1,4.9-2.4,9.9-3.3,14.9c-0.1,0.7,1.8,2.6,2.1,2.5c1.7-0.7,4.5-1.9,4.5-2.9
			C333.6,60.1,332.8,55.2,332.2,50.3z"/>
		<path fill="#FFF" d="M262.3,95c-10.5-0.1-9.1,1.2-9.3-9.3c-0.1-2.5-1-5.1-1.4-7.6c-0.3-2.1-0.9-4.4-0.4-6.4c3.8-15.9,1.2-32,1.9-48
			c0.3-7.9,1.2-8.7,9.1-7.8c2.7,0.3,5.5-0.8,8.3-0.8c6.1,0.1,12.4-0.2,18.3,1.3c3.2,0.8,6.9,4.3,8.1,7.4c1.6,4.5,1.2,9.8,1.5,14.7
			c0.1,2.8-0.2,5.6-0.2,8.5c-0.1,6.2-2.9,10.3-8.9,12c-3.6,1-7.3,1.7-11,1.9c-2.9,0.2-4,1.1-4.2,4.1c-0.5,8.9-1.1,17.7-2.1,26.6
			c-0.1,1.3-2.1,2.8-3.6,3.3C266.4,95.4,264.3,95,262.3,95z M272,44.8c8.5,0.5,8.8,0,9.1-7c0.2-4.9-2.9-5.5-6.2-5.7
			c-4-0.2-2.8,3.2-3,5.5C271.9,39.8,272,42.1,272,44.8z"/>
		<path fill="#FFF" d="M61,33.5c0,7.6,0,15.2,0,22.9c0,12.3-0.1,24.7,0.1,37c0,3.4-1,4.9-4.6,4.7c-3.3-0.2-6.7-0.2-10,0
			c-4.6,0.3-5.7-2.8-5.7-6.2c-0.1-11.3,0.3-22.7,0.2-34c0-6.4-0.6-12.9-1-19.3c-0.2-3.6-1.5-5.7-5.8-5.6C23.1,32.9,22,31.6,22,20.4
			c0-7.7,1.7-9.4,9.1-9.4c11.9,0,23.7,0.1,35.6,0.1c3.5,0,6.3,4.3,5.9,8.7c0,0.5-0.4,0.9-0.5,1.3C71.3,32.1,71.3,32.1,61,33.5z"/>
		<path fill="#FFF" d="M447.9,19c3.7,0,7.3-0.1,11,0c4.8,0.1,7.9,3.3,8.1,8c0.1,1.5,0,3,0,4.5c0,6.1-4.1,9.6-9.9,8c-4.5-1.3-5.3,2.1-5.9,4.7
			c-0.6,2.7,0.3,5.9,4.2,5.8c4.9-0.2,6,2.6,5.6,6.6c-0.4,3.4,1.6,7.6-3.2,9.4c-1.6,0.6-4.4,1.2-4.5,1.9c-0.3,4.3-0.1,8.6,0.3,12.9
			c0,0.4,2.2,0.9,3.3,0.7c4.3-0.6,7,1.4,7.1,5.6c0,3.1,0.8,6.9-0.6,9.2c-0.8,1.3-5.3,0.3-8.2,0.5c-6.8,0.5-13.6,1.1-20.3,1.6
			c-3.2,0.3-4.5-0.3-4.1-4.3c0.6-6.5-0.2-13.2-0.5-19.8c0-1.3-0.2-2.6-0.2-4c0-14.7,0-29.4,0-44c0-5.6,1.8-7.3,7.4-7.3
			C440.9,19,444.4,19,447.9,19z"/>
		<path fill="#FFF" d="M607,38.1c0,16.9-0.1,33.1,0,49.3c0.1,11.7,0.1,10.2-10.1,10.8c-2.3,0.1-4.6,0.1-6.8-0.4c-1.2-0.3-2.9-1.6-2.9-2.6
			c-0.3-6.5-0.1-13.1-0.2-19.6c-0.1-6.6-0.4-13.2-0.6-19.9c-0.1-4-0.3-8-0.3-11.9c0-3.3-1.2-5-5-5c-6.8,0.1-8.7-1.6-8.9-8
			c-0.1-3.6,0.4-7.2,1.1-10.7c0.2-0.9,2.1-2,3.3-2.1c10.1-0.5,20.2-0.9,30.3-1.1c13.3-0.2,13.1,0,13.3,13.3c0.1,4.8-2.1,6.4-6.4,6.6
			C611.3,37.2,608.9,37.8,607,38.1z"/>
	</g>
</g>
</svg>
